<svg width="118" height="48" xmlns="http://www.w3.org/2000/svg" fill="none">

 <g>
  <title>Layer 1</title>
  <g stroke="null" id="svg_21">
   <path stroke="null" id="svg_1" fill="#D5D6DB" d="m64.88215,36.40238c-1.3138,-0.4598 -2.7348,-0.68081 -4.1744,-0.64969c-3.724,0.03848 -6.7852,1.49748 -6.837,3.2585c-0.0517,1.76089 2.9256,3.15639 6.6496,3.11787c1.4387,0.00111 2.8732,-0.24918 4.2151,-0.73528c0.63409,-0.24371 1.0535,-0.77831 1.06989,-1.3629l0.06721,-2.28762c0.0189,-0.58501 -0.3699,-1.1109 -0.9904,-1.3409z"/>
   <path stroke="null" id="svg_2" fill="#D5D6DB" d="m72.45634,9.31988c-0.9528,-0.3333 -1.9833,-0.4935 -3.0273,-0.4709c-2.6996,0.0279 -4.92,1.0854 -4.9575,2.3612c-0.0374,1.2758 2.1224,2.288 4.82169,2.2601c1.0433,0.00051 2.0836,-0.1813 3.0568,-0.53379c0.4594,-0.1768 0.76321,-0.5641 0.7751,-0.9879l0.0487,-1.6564c0.0138,-0.4239 -0.26759,-0.8054 -0.7175,-0.97231z"/>
   <path stroke="null" id="svg_3" fill="#029BC5" d="m60.98145,3.50558c-0.17319,-0.1367 -0.4025,-0.2107 -0.6431,-0.2079l-6.3415,0.0659c-0.53,0.0047 -0.9713,0.3747 -0.9854,0.8267c-0.0034,0.1036 0.0164,0.2061 0.0584,0.3017l6.3869,14.68l21.1457,-0.21989l-19.621,-15.4465z"/>
   <path stroke="null" id="svg_4" fill="#E1E6E9" d="m109.51625,32.21708l-57.347,0.27942l-30.4127,-5.47962l-13.9687,-5.26999l0.0795,-3.175l95.0709,0.36541c2.837,0.0055 5.602,0.64629 8.015,1.85789c1.053,0.536 2.02,1.1839 2.877,1.92841c0.764,0.6534 1.411,1.3986 1.921,2.21339c0.565,0.9155 2.09301,1.9322 2.094,3.0551c0.00301,-0.00019 -1.12,4.45412 -8.32899,4.225z"/>
   <path stroke="null" id="svg_5" fill="#029BC5" d="m54.85225,29.40499l-35.5149,17.3126c-0.4712,0.2605 -0.6173,0.7897 -0.3268,1.1818c0.1783,0.24069 0.4907,0.384 0.83,0.3809l6.3284,-0.05279c1.2174,-0.01042 2.4279,-0.23273 3.5569,-0.65291l59.867,-19.1104l-34.7406,0.9408z"/>
   <path stroke="null" id="svg_6" fill="#029BC5" d="m10.47095,0.45018c-0.234,-0.2867 -0.6207,-0.4543 -1.0378,-0.4501l-5.237,0.053c-0.7134,0.0069 -1.3063,0.5053 -1.3246,1.1132c-0.0033,0.1156 0.0144,0.2303 0.0532,0.3397l5.2662,14.9568l15.3429,-0.0206l-13.0629,-15.992z"/>
   <path stroke="null" id="svg_7" fill="#029BC5" d="m10.76775,20.17257l-10.5864,4.398c-0.1538,0.0622 -0.2233,0.21719 -0.1552,0.34599c0.0492,0.0929 0.1595,0.15041 0.2808,0.1463l4.8871,-0.0383c0.038,-0.0003 0.0761,-0.0065 0.1119,-0.0185l14.5185,-4.9007l-9.0567,0.0672z"/>
   <path stroke="null" id="svg_8" fill="#029BC5" d="m112.94125,22.64388c-0.882,-0.76761 -1.878,-1.43441 -2.964,-1.98501c-1.875,0.7773 -3.496,1.9527 -4.701,3.409c-0.215,0.3096 -0.101,0.6999 0.255,0.8718c0.111,0.0533 0.237,0.08109 0.366,0.0806l9.019,-0.0905c-0.52399,-0.8425 -1.189,-1.61211 -1.975,-2.2859z"/>
   <path stroke="null" id="svg_9" fill="#D5D6DB" d="m94.15925,21.44138l5.874,-0.03711l-0.232,9.12541l-5.875,0.0372l0.233,-9.1255z"/>
   <path stroke="null" id="svg_10" fill="#3A556A" d="m89.86024,22.43108c-0.7082,0.0054 -1.2966,0.49759 -1.3133,1.0994l-0.0272,0.975c0.0071,0.6011 0.5876,1.0675 1.2965,1.04169c0.675,-0.02479 1.229,-0.48849 1.268,-1.06149l0.028,-0.975c0.01601,-0.6012 -0.544,-1.0846 -1.252,-1.0796z"/>
   <path stroke="null" id="svg_11" fill="#3A556A" d="m84.60525,22.42447c-0.7085,0.00541 -1.2968,0.4976 -1.3136,1.0994l-0.0272,0.97501c0.00719,0.6011 0.5877,1.0675 1.2967,1.0417c0.6749,-0.0248 1.2293,-0.4885 1.2683,-1.06151l0.0272,-0.9749c0.0165,-0.6013 -0.5435,-1.08469 -1.2514,-1.0797z"/>
   <path stroke="null" id="svg_12" fill="#3A556A" d="m79.34835,22.41788c-0.70821,0.00619 -1.2954,0.4981 -1.3121,1.0994l-0.0272,0.97489c0.0072,0.6011 0.5877,1.0675 1.2967,1.04181c0.6749,-0.0248 1.2293,-0.4885 1.2683,-1.06151l0.0272,-0.97489c0.0167,-0.6018 -0.54411,-1.0851 -1.2529,-1.0797z"/>
   <path stroke="null" id="svg_13" fill="#3A556A" d="m74.09325,22.41127c-0.7082,0.00621 -1.2953,0.4981 -1.3121,1.09941l-0.02721,0.975c0.0072,0.6011 0.5877,1.0675 1.2967,1.04169c0.6749,-0.02469 1.2293,-0.4884 1.2683,-1.06149l0.0272,-0.9749c0.0165,-0.60181 -0.5444,-1.0851 -1.2529,-1.07971z"/>
   <path stroke="null" id="svg_14" fill="#3A556A" d="m68.83835,22.40517c-0.7086,0.0062 -1.296,0.4983 -1.3127,1.09991l-0.02721,0.9754c-0.01669,0.6013 0.54391,1.0844 1.2522,1.079c0.7083,-0.0054 1.296,-0.4972 1.3127,-1.0986l0.0271,-0.9754c0.0177,-0.6013 -0.5423,-1.0849 -1.2506,-1.0803c-0.0006,0 -0.0009,0 -0.0015,0z"/>
   <path stroke="null" id="svg_15" fill="#3A556A" d="m63.58315,22.39867c-0.7086,0.00611 -1.2961,0.4982 -1.3128,1.0998l-0.0271,0.97541c-0.0167,0.6013 0.5439,1.0844 1.2521,1.079c0.7083,-0.0054 1.296,-0.4972 1.3128,-1.0986l0.02711,-0.9754c0.01759,-0.6013 -0.5424,-1.08491 -1.2506,-1.08031c-0.0006,0 -0.0012,0.0001 -0.0015,0.0001z"/>
   <path stroke="null" id="svg_16" fill="#3A556A" d="m58.32774,22.39207c-0.7086,0.0061 -1.296,0.4982 -1.3128,1.0997l-0.0271,0.9754c-0.0158,0.60129 0.5457,1.08359 1.2537,1.0775c0.7068,-0.0062 1.2933,-0.4969 1.3109,-1.097l0.0271,-0.97541c0.01701,-0.60149 -0.5433,-1.0851 -1.2518,-1.0802z"/>
   <path stroke="null" id="svg_17" fill="#3A556A" d="m53.07235,22.38537c-0.7086,0.0062 -1.2961,0.4983 -1.3128,1.0998l-0.0271,0.97541c-0.0159,0.60129 0.5456,1.0836 1.2536,1.0775c0.7068,-0.0062 1.2933,-0.497 1.31089,-1.097l0.02721,-0.9754c0.017,-0.60161 -0.5433,-1.0852 -1.2518,-1.08031z"/>
   <path stroke="null" id="svg_18" fill="#3A556A" d="m47.81715,22.37888c-0.7086,0.0061 -1.296,0.49819 -1.3127,1.09979l-0.0271,0.9754c-0.0159,0.6013 0.5456,1.0836 1.2536,1.0774c0.7068,-0.0061 1.2933,-0.49691 1.3109,-1.097l0.0271,-0.9754c0.0167,-0.6015 -0.5435,-1.0851 -1.2518,-1.0802z"/>
   <path stroke="null" id="svg_19" fill="#3A556A" d="m42.56035,22.37218c-0.7083,0.0054 -1.296,0.4973 -1.3127,1.09861l-0.0001,0.0012l-0.0271,0.9755c-0.0158,0.6013 0.5457,1.0836 1.2537,1.0774c0.7068,-0.00621 1.2933,-0.497 1.3109,-1.097l0.0271,-0.9754c0.017,-0.6016 -0.5433,-1.0852 -1.2518,-1.0803z"/>
   <path stroke="null" id="svg_20" fill="#3A556A" d="m37.30655,22.36558c-0.7083,0.0054 -1.296,0.4973 -1.3127,1.0986l0,0.0012l-0.0271,0.9754c-0.0159,0.6013 0.5457,1.0836 1.2536,1.07749c0.7068,-0.0062 1.2933,-0.4969 1.3109,-1.097l0.0271,-0.9754c0.0168,-0.6015 -0.5435,-1.0851 -1.2518,-1.0803z"/>
  </g>
 </g>
</svg>