<svg width="118" height="48" xmlns="http://www.w3.org/2000/svg" fill="none"><g stroke="null"><path fill="#D5D6DB" d="M64.882 36.402a11.888 11.888 0 00-4.174-.65c-3.724.04-6.785 1.498-6.837 3.26-.052 1.76 2.925 3.156 6.65 3.117 1.438.001 2.873-.25 4.214-.735.635-.244 1.054-.779 1.07-1.363l.068-2.288c.018-.585-.37-1.11-.99-1.34zM72.456 9.32a8.624 8.624 0 00-3.027-.471c-2.7.028-4.92 1.085-4.957 2.361-.038 1.276 2.122 2.288 4.821 2.26a8.988 8.988 0 003.057-.534c.46-.176.763-.564.775-.987l.049-1.657c.014-.424-.268-.805-.718-.972z"/><path fill="#029BC5" d="M60.981 3.506a1.02 1.02 0 00-.643-.208l-6.341.066c-.53.004-.971.374-.986.826a.692.692 0 00.059.302l6.387 14.68 21.145-.22-19.62-15.446z"/><path fill="#E1E6E9" d="M109.516 32.217l-57.347.28-30.412-5.48-13.97-5.27.08-3.175 95.071.365c2.837.006 5.602.647 8.015 1.858a14.214 14.214 0 012.877 1.929 9.675 9.675 0 011.921 2.213c.565.915 2.093 1.932 2.094 3.055.003 0-1.12 4.454-8.329 4.225z"/><path fill="#029BC5" d="M54.852 29.405L19.337 46.718c-.47.26-.617.79-.326 1.181.178.241.49.384.83.381l6.328-.053a10.483 10.483 0 003.557-.652l59.867-19.11-34.74.94zM10.47.45C10.237.163 9.85-.004 9.433 0L4.196.053C3.483.06 2.89.558 2.872 1.166a.934.934 0 00.053.34L8.19 16.463l15.343-.02L10.47.45zm.298 19.723L.18 24.57c-.153.062-.223.217-.155.346.05.092.16.15.281.146l4.887-.038a.362.362 0 00.112-.019l14.518-4.9-9.056.067zm102.173 2.471a14.49 14.49 0 00-2.964-1.985c-1.875.777-3.496 1.953-4.7 3.409-.216.31-.102.7.254.872a.84.84 0 00.366.08l9.02-.09a9.915 9.915 0 00-1.976-2.286z"/><path fill="#D5D6DB" d="M94.16 21.441l5.873-.037-.232 9.126-5.875.037.233-9.126z"/><path fill="#3A556A" d="M89.86 22.431c-.708.005-1.296.498-1.313 1.1l-.027.974c.007.602.587 1.068 1.296 1.042.675-.025 1.23-.488 1.268-1.061l.028-.975c.016-.602-.544-1.085-1.252-1.08zm-5.255-.007c-.708.006-1.297.498-1.313 1.1l-.028.975c.008.601.588 1.067 1.297 1.042.675-.025 1.23-.489 1.268-1.062l.028-.975c.016-.601-.544-1.085-1.252-1.08zm-5.257-.006c-.708.006-1.295.498-1.312 1.1l-.027.974c.007.601.588 1.068 1.297 1.042.675-.025 1.23-.489 1.268-1.062l.027-.974c.017-.602-.544-1.086-1.253-1.08zm-5.255-.007c-.708.006-1.295.498-1.312 1.1l-.027.975c.007.6.588 1.067 1.297 1.041.675-.024 1.229-.488 1.268-1.061l.027-.975c.017-.602-.544-1.085-1.253-1.08zm-5.255-.006c-.708.006-1.296.498-1.312 1.1l-.028.975c-.016.602.544 1.085 1.253 1.08.708-.006 1.296-.498 1.312-1.1l.027-.975c.018-.6-.542-1.084-1.25-1.08h-.002zm-5.255-.006c-.708.006-1.296.498-1.313 1.1l-.027.975c-.016.601.544 1.084 1.252 1.079.709-.006 1.296-.497 1.313-1.099l.027-.975c.018-.601-.542-1.085-1.25-1.08h-.002zm-5.255-.007c-.709.006-1.296.498-1.313 1.1l-.027.975c-.016.601.546 1.084 1.254 1.078.706-.007 1.293-.497 1.31-1.097l.028-.976c.017-.601-.544-1.085-1.252-1.08zm-5.256-.007c-.708.007-1.296.499-1.312 1.1l-.028.976c-.015.6.546 1.083 1.254 1.077.707-.006 1.293-.497 1.31-1.097l.028-.975c.017-.602-.543-1.086-1.252-1.08zm-5.255-.006c-.708.006-1.296.498-1.313 1.1l-.027.975c-.016.601.546 1.084 1.254 1.077.707-.006 1.293-.496 1.31-1.097l.028-.975c.017-.601-.544-1.085-1.252-1.08zm-5.257-.007c-.708.006-1.296.497-1.312 1.099v.001l-.028.975c-.015.602.546 1.084 1.254 1.078.707-.006 1.293-.497 1.311-1.097l.027-.976c.017-.601-.543-1.085-1.252-1.08zm-5.253-.006c-.709.005-1.296.497-1.313 1.098v.001l-.027.976c-.016.601.545 1.083 1.253 1.077.707-.006 1.294-.497 1.311-1.097l.027-.975c.017-.602-.543-1.085-1.251-1.08z"/></g></svg>