<svg width="50" height="50" fill="none" xmlns="http://www.w3.org/2000/svg"><path d="M50 27.848v-5.696a2.022 2.022 0 00-2.022-2.022H45.8a2.02 2.02 0 01-1.917-1.385 19.757 19.757 0 00-1.107-2.669 2.022 2.022 0 01.375-2.339l1.542-1.541c.79-.79.79-2.07 0-2.86l-4.028-4.028c-.79-.79-2.07-.79-2.86 0L36.263 6.85a2.022 2.022 0 01-2.34.375 19.754 19.754 0 00-2.668-1.107A2.02 2.02 0 0129.87 4.2V2.022A2.022 2.022 0 0027.848 0h-5.696a2.022 2.022 0 00-2.022 2.022V4.2a2.02 2.02 0 01-1.385 1.918 19.76 19.76 0 00-2.669 1.106 2.022 2.022 0 01-2.339-.375l-1.541-1.542c-.79-.79-2.07-.79-2.86 0L5.308 9.336c-.79.79-.79 2.07 0 2.86l1.542 1.541c.617.617.767 1.56.375 2.34a19.75 19.75 0 00-1.107 2.668 2.02 2.02 0 01-1.186 1.248c-.229.089-.375.238-.63.238h-2.18a2.022 2.022 0 00-2.021 2.021v5.496c0 1.116.905 2.021 2.022 2.021H4.3c.871 0 1.644.66 1.918 1.486.305.921.676 1.813 1.106 2.669.392.78.242 1.722-.375 2.339l-1.44 1.541c-.79.79-.79 2.07 0 2.86l3.826 3.826c.79.79 2.07.79 2.86 0l1.541-1.54a2.022 2.022 0 012.34-.376c.855.43 1.948.902 2.87 1.207a2.02 2.02 0 011.384 1.918v2.179c0 1.116.905 2.022 2.022 2.022h5.395a2.022 2.022 0 002.022-2.022v-2.18c0-.255.148-.401.237-.63a2.02 2.02 0 011.248-1.186 19.762 19.762 0 002.669-1.107 2.022 2.022 0 012.339.375l1.541 1.542c.79.79 2.07.79 2.86 0l4.028-4.028c.79-.79.79-2.07 0-2.86l-1.542-1.541a2.022 2.022 0 01-.375-2.34c.43-.855.802-1.747 1.107-2.668A2.02 2.02 0 0145.8 29.87h2.178A2.022 2.022 0 0050 27.848z" fill="#B6C4CF"/><path d="M30.007 45.068a2.023 2.023 0 00-.137.732v2.178A2.022 2.022 0 0127.848 50h-5.696a2.022 2.022 0 01-2.022-2.022V45.8c0-.871-.559-1.645-1.386-1.919a19.757 19.757 0 01-2.668-1.105 2.022 2.022 0 00-2.339.374l-1.54 1.541c-.79.79-2.071.79-2.861 0l-4.028-4.027a2.024 2.024 0 010-2.86l1.542-1.541c.617-.617.767-1.56.374-2.34a19.83 19.83 0 01-1.105-2.668A2.02 2.02 0 004.2 29.87H2.022A2.022 2.022 0 010 27.848v-5.696c0-1.117.905-2.022 2.022-2.022H4.2c.256 0 .503-.049.732-.137a23.88 23.88 0 00-.003.38c0 13.64 11.058 24.698 24.699 24.698.127 0 .253 0 .379-.003z" fill="#9FACBA"/><path d="M25 41.6c9.168 0 16.6-7.432 16.6-16.6 0-9.168-7.432-16.6-16.6-16.6-9.168 0-16.6 7.432-16.6 16.6 0 9.168 7.432 16.6 16.6 16.6z" fill="#9FACBA"/><path d="M25 38.078c7.223 0 13.078-5.855 13.078-13.078 0-7.223-5.855-13.079-13.078-13.079-7.223 0-13.079 5.856-13.079 13.079 0 7.223 5.856 13.078 13.079 13.078z" fill="#F8F7F7"/></svg>