<svg width="833" height="241" fill="none" xmlns="http://www.w3.org/2000/svg"><rect x="404.698" y="186.434" width="381.962" height="54.566" rx="27.283" fill="#FFF1DA"/><rect x="741.189" width="90.943" height="54.566" rx="27.283" fill="#FFF1DA"/><rect y="186.434" width="90.943" height="54.566" rx="27.283" fill="#FFF1DA"/><path d="M105.732 41.265v28.1H71.869v98.887H36.565V69.364H3.062V41.265h102.67zm48.366 43.77c3.962-5.764 8.766-10.327 14.409-13.69 5.644-3.362 11.708-5.043 18.193-5.043v37.646h-9.907c-7.685 0-13.389 1.501-17.112 4.503-3.722 3.002-5.583 8.226-5.583 15.671v44.13h-35.305V67.202h35.305v17.833zm39.494 32.602c0-10.447 1.862-19.573 5.584-27.378 3.843-7.806 9.006-13.81 15.491-18.013 6.604-4.203 13.929-6.304 21.975-6.304 6.964 0 12.968 1.381 18.012 4.143 5.043 2.762 8.946 6.484 11.708 11.168v-14.05h35.304v101.049h-35.304v-14.05c-2.762 4.683-6.725 8.406-11.888 11.168-5.044 2.762-10.988 4.143-17.832 4.143-8.046 0-15.371-2.102-21.975-6.305-6.485-4.203-11.648-10.207-15.491-18.012-3.722-7.925-5.584-17.112-5.584-27.559zm72.77 0c0-6.484-1.801-11.588-5.404-15.31-3.482-3.723-7.805-5.584-12.969-5.584-5.283 0-9.666 1.861-13.149 5.584-3.482 3.602-5.223 8.706-5.223 15.31 0 6.485 1.741 11.648 5.223 15.491 3.483 3.722 7.866 5.584 13.149 5.584 5.164 0 9.487-1.862 12.969-5.584 3.603-3.723 5.404-8.886 5.404-15.491zm103.874 17.292l18.913-67.726h37.646l-34.764 101.049h-43.95l-34.763-101.05h37.645l19.273 67.727zm165.067-18.372c0 2.761-.18 5.523-.54 8.285h-66.825c.36 5.524 1.861 9.667 4.503 12.429 2.761 2.641 6.244 3.962 10.447 3.962 5.884 0 10.087-2.641 12.608-7.925h37.646c-1.561 6.965-4.623 13.209-9.186 18.733-4.443 5.403-10.087 9.666-16.932 12.788-6.844 3.123-14.41 4.684-22.695 4.684-9.967 0-18.853-2.102-26.658-6.305-7.686-4.203-13.75-10.207-18.193-18.012-4.323-7.805-6.484-16.992-6.484-27.559s2.161-19.693 6.484-27.378c4.323-7.806 10.327-13.81 18.012-18.013 7.806-4.203 16.752-6.304 26.839-6.304 9.967 0 18.793 2.041 26.478 6.124 7.685 4.083 13.689 9.967 18.012 17.652 4.323 7.565 6.484 16.512 6.484 26.839zm-36.024-8.826c0-4.323-1.441-7.686-4.323-10.087-2.882-2.522-6.484-3.783-10.807-3.783s-7.866 1.2-10.628 3.602c-2.762 2.282-4.563 5.704-5.403 10.268h31.161zm85.776-72.771v133.292h-35.304V34.961h35.304zm55.409 0v133.292H605.16V34.961h35.304zm67.117 134.553c-10.087 0-19.153-2.102-27.199-6.305-7.925-4.203-14.169-10.207-18.732-18.012-4.563-7.805-6.845-16.992-6.845-27.559 0-10.447 2.282-19.573 6.845-27.378 4.683-7.806 10.987-13.81 18.913-18.013 8.045-4.203 17.111-6.304 27.198-6.304s19.093 2.102 27.019 6.304c8.045 4.203 14.349 10.207 18.912 18.013 4.684 7.805 7.025 16.931 7.025 27.378s-2.341 19.634-7.025 27.559c-4.563 7.805-10.867 13.809-18.912 18.012-8.046 4.203-17.112 6.305-27.199 6.305zm0-30.621c4.923 0 9.006-1.801 12.248-5.404 3.363-3.722 5.044-9.006 5.044-15.851 0-6.844-1.681-12.068-5.044-15.67-3.242-3.603-7.265-5.404-12.068-5.404s-8.826 1.801-12.068 5.404c-3.242 3.602-4.863 8.826-4.863 15.67 0 6.965 1.561 12.249 4.683 15.851 3.122 3.603 7.145 5.404 12.068 5.404z" fill="#000"/></svg>